<svg width="428" height="512" viewBox="0 0 428 512" fill="none" xmlns="http://www.w3.org/2000/svg">
<path d="M265.499 -7.62939e-06H64.6667C29.3813 -7.62939e-06 0.666656 28.7147 0.666656 64V512H427.333V161.835L265.499 -7.62939e-06ZM278 72.832L354.501 149.333H278V72.832ZM384.667 469.333H43.3333V64C43.3333 52.2453 52.912 42.6667 64.6667 42.6667H235.333V192H384.667V469.333ZM86 426.667H342V277.333H86V426.667ZM128.667 320H299.333V384H128.667V320ZM192.667 234.667H86V192H192.667V234.667ZM192.667 149.333H86V106.667H192.667V149.333Z" fill="black"/>
</svg>
