<svg width="600" height="550" viewBox="0 0 600 550" fill="none" xmlns="http://www.w3.org/2000/svg">
<path d="M350 225C350 250.475 342.3 274.1 329.2 293.85L250 214.65V102.525C307.05 114.1 350 164.525 350 225ZM200 102.525C142.95 114.1 100 164.525 100 225C100 294.025 155.975 350 225 350C250.475 350 274.1 342.3 293.85 329.2L200 235.35V102.525ZM400 150H500V100H400V150ZM400 250H500V200H400V250ZM400 350H500V300H400V350ZM325 450V500H450V550H150V500H275V450H0V75C0 33.65 33.65 0 75 0H525C566.35 0 600 33.65 600 75V450H325ZM50 400H550V75C550 61.225 538.8 50 525 50H75C61.2 50 50 61.225 50 75V400Z" fill="url(#paint0_linear_1_34)"/>
<defs>
<linearGradient id="paint0_linear_1_34" x1="300" y1="0" x2="300" y2="550" gradientUnits="userSpaceOnUse">
<stop offset="0.185" stop-color="#141824"/>
<stop offset="0.615" stop-color="#3C74F6"/>
<stop offset="1" stop-color="#0180C6"/>
</linearGradient>
</defs>
</svg>
