<svg width="832" height="905" viewBox="0 0 832 905" fill="none" xmlns="http://www.w3.org/2000/svg">
<g filter="url(#filter0_d_8_9)">
<path d="M296.909 513.091C278.727 513.091 260.545 494.909 260.545 476.727V440.364H224.182C204.109 440.364 187.818 424.073 187.818 404V367.636H78.7273L6 331.273V258.545L78.7273 204V94.9091L133.273 58.5455C133.273 58.5455 162.945 120.982 180.836 114.473C196.218 108.873 187.818 40.3636 187.818 40.3636L282.909 4L333.273 76.7273H369.636L442.364 22.1818L496.909 58.5455L496.618 109.309L574.909 137.164C631.673 157.382 685.091 186.036 733.273 222.182H806V349.418C796.291 369.818 715.091 422.145 696.909 440.364V458.545C696.909 571.891 619.891 620.436 606 622.182C556.691 628.327 538.873 661.673 525.564 709.491C496.909 822.182 406 876.727 406 876.727C406 876.727 296.909 804 296.909 767.636C315.527 741.127 369.636 719.164 369.636 719.164V676.727L296.909 604V513.091Z" fill="url(#paint0_linear_8_9)" shape-rendering="crispEdges"/>
</g>
<path d="M333.34 261.16C342.727 261.16 351.05 262.187 358.31 264.24C365.643 266.22 371.547 268.347 376.02 270.62C380.567 272.893 383.353 274.433 384.38 275.24L364.25 309.34C363.077 308.46 361.023 307.25 358.09 305.71C355.23 304.097 352.003 302.667 348.41 301.42C344.817 300.173 341.37 299.55 338.07 299.55C334.183 299.55 330.957 300.1 328.39 301.2C325.823 302.227 324.54 304.023 324.54 306.59C324.54 308.35 325.237 309.963 326.63 311.43C328.023 312.897 330.37 314.4 333.67 315.94C337.043 317.48 341.627 319.24 347.42 321.22C353.067 323.053 358.237 325.327 362.93 328.04C367.623 330.753 371.657 333.98 375.03 337.72C378.477 341.46 381.153 345.75 383.06 350.59C384.967 355.43 385.92 360.893 385.92 366.98C385.92 375.047 384.233 381.94 380.86 387.66C377.56 393.307 373.123 397.89 367.55 401.41C361.977 404.93 355.743 407.497 348.85 409.11C342.03 410.797 335.1 411.64 328.06 411.64C317.28 411.64 307.673 410.467 299.24 408.12C290.88 405.773 284.097 403.243 278.89 400.53C273.757 397.743 270.603 395.763 269.43 394.59L290.22 359.06C291.027 359.72 292.75 360.783 295.39 362.25C298.103 363.717 301.33 365.257 305.07 366.87C308.883 368.483 312.807 369.877 316.84 371.05C320.873 372.15 324.613 372.7 328.06 372.7C332.68 372.7 336.09 372.04 338.29 370.72C340.49 369.4 341.59 367.493 341.59 365C341.59 363.24 340.893 361.59 339.5 360.05C338.18 358.51 335.76 356.897 332.24 355.21C328.793 353.45 323.88 351.433 317.5 349.16C311.34 346.887 305.473 343.917 299.9 340.25C294.327 336.583 289.78 331.817 286.26 325.95C282.74 320.083 280.98 312.75 280.98 303.95C280.98 295.003 283.473 287.34 288.46 280.96C293.447 274.58 299.937 269.703 307.93 266.33C315.923 262.883 324.393 261.16 333.34 261.16ZM475.802 326.28H550.272V336.29C550.272 346.923 548.549 356.823 545.102 365.99C541.655 375.083 536.669 383.077 530.142 389.97C523.689 396.79 515.915 402.107 506.822 405.92C497.729 409.733 487.535 411.64 476.242 411.64C464.582 411.64 454.059 409.733 444.672 405.92C435.359 402.107 427.365 396.79 420.692 389.97C414.019 383.077 408.885 375.083 405.292 365.99C401.772 356.823 400.012 346.923 400.012 336.29C400.012 325.73 401.772 315.903 405.292 306.81C408.885 297.643 414.019 289.65 420.692 282.83C427.365 276.01 435.359 270.693 444.672 266.88C454.059 263.067 464.582 261.16 476.242 261.16C486.802 261.16 495.932 262.297 503.632 264.57C511.332 266.843 517.822 269.813 523.102 273.48C528.382 277.073 532.709 280.96 536.082 285.14C539.455 289.247 542.132 293.133 544.112 296.8L503.192 315.28C501.139 311.76 498.095 308.46 494.062 305.38C490.102 302.3 484.162 300.76 476.242 300.76C471.475 300.76 467.112 301.713 463.152 303.62C459.265 305.453 455.929 308.02 453.142 311.32C450.355 314.547 448.192 318.323 446.652 322.65C445.185 326.903 444.452 331.45 444.452 336.29C444.452 341.203 445.185 345.823 446.652 350.15C448.192 354.403 450.355 358.18 453.142 361.48C455.929 364.707 459.265 367.237 463.152 369.07C467.112 370.903 471.475 371.82 476.242 371.82C480.055 371.82 483.465 371.563 486.472 371.05C489.552 370.463 492.155 369.62 494.282 368.52C496.482 367.347 498.205 365.917 499.452 364.23C500.772 362.47 501.615 360.453 501.982 358.18H475.802V326.28ZM568.553 263.8H611.233V372.04H660.843V409H568.553V263.8Z" fill="#022873"/>
<defs>
<filter id="filter0_d_8_9" x="0.6" y="0.6" width="830.8" height="903.527" filterUnits="userSpaceOnUse" color-interpolation-filters="sRGB">
<feFlood flood-opacity="0" result="BackgroundImageFix"/>
<feColorMatrix in="SourceAlpha" type="matrix" values="0 0 0 0 0 0 0 0 0 0 0 0 0 0 0 0 0 0 127 0" result="hardAlpha"/>
<feOffset dx="10" dy="12"/>
<feGaussianBlur stdDeviation="7.7"/>
<feComposite in2="hardAlpha" operator="out"/>
<feColorMatrix type="matrix" values="0 0 0 0 0 0 0 0 0 0 0 0 0 0 0 0 0 0 0.75 0"/>
<feBlend mode="normal" in2="BackgroundImageFix" result="effect1_dropShadow_8_9"/>
<feBlend mode="normal" in="SourceGraphic" in2="effect1_dropShadow_8_9" result="shape"/>
</filter>
<linearGradient id="paint0_linear_8_9" x1="406" y1="4" x2="406" y2="877" gradientUnits="userSpaceOnUse">
<stop offset="0.2" stop-color="#03A63C"/>
<stop offset="0.5" stop-color="#F2CB05" stop-opacity="0.95"/>
<stop offset="0.75" stop-color="#022873"/>
</linearGradient>
</defs>
</svg>
