<svg width="600" height="655" viewBox="0 0 600 655" fill="none" xmlns="http://www.w3.org/2000/svg">
<path d="M350 250C350 275.475 342.3 299.1 329.2 318.85L250 239.65V127.525C307.05 139.1 350 189.525 350 250ZM200 127.525C142.95 139.1 100 189.525 100 250C100 319.025 155.975 375 225 375C250.475 375 274.1 367.3 293.85 354.2L200 260.35V127.525ZM400 175H500V125H400V175ZM400 275H500V225H400V275ZM400 375H500V325H400V375ZM325 475V525H450V575H150V525H275V475H0V100C0 58.65 33.65 25 75 25H525C566.35 25 600 58.65 600 100V475H325ZM50 425H550V100C550 86.225 538.8 75 525 75H75C61.2 75 50 86.225 50 100V425Z" fill="url(#paint0_linear_1_37)"/>
<path d="M110.648 640C109.155 640 107.768 639.637 106.488 638.912C105.208 638.144 104.184 637.141 103.416 635.904C102.691 634.624 102.328 633.216 102.328 631.68V628.992H109.24V631.488C109.24 631.915 109.389 632.299 109.688 632.64C110.029 632.939 110.413 633.088 110.84 633.088H139.896C140.323 633.088 140.685 632.939 140.984 632.64C141.283 632.299 141.432 631.915 141.432 631.488V622.016C141.432 621.547 141.283 621.163 140.984 620.864C140.685 620.565 140.323 620.416 139.896 620.416H110.648C109.155 620.416 107.768 620.053 106.488 619.328C105.208 618.56 104.184 617.557 103.416 616.32C102.691 615.04 102.328 613.632 102.328 612.096V602.24C102.328 600.704 102.691 599.317 103.416 598.08C104.184 596.8 105.208 595.797 106.488 595.072C107.768 594.304 109.155 593.92 110.648 593.92H140.088C141.581 593.92 142.968 594.304 144.248 595.072C145.528 595.797 146.531 596.8 147.256 598.08C148.024 599.317 148.408 600.704 148.408 602.24V604.928H141.432V602.432C141.432 602.005 141.283 601.643 140.984 601.344C140.685 601.003 140.323 600.832 139.896 600.832H110.84C110.413 600.832 110.029 601.003 109.688 601.344C109.389 601.643 109.24 602.005 109.24 602.432V611.904C109.24 612.373 109.389 612.757 109.688 613.056C110.029 613.355 110.413 613.504 110.84 613.504H140.088C141.581 613.504 142.968 613.888 144.248 614.656C145.528 615.381 146.531 616.384 147.256 617.664C148.024 618.901 148.408 620.288 148.408 621.824V631.68C148.408 633.216 148.024 634.624 147.256 635.904C146.531 637.141 145.528 638.144 144.248 638.912C142.968 639.637 141.581 640 140.088 640H110.648ZM163.654 640C162.118 640 160.71 639.637 159.43 638.912C158.193 638.144 157.19 637.141 156.422 635.904C155.697 634.624 155.334 633.216 155.334 631.68V602.24C155.334 600.704 155.697 599.317 156.422 598.08C157.19 596.8 158.193 595.797 159.43 595.072C160.71 594.304 162.118 593.92 163.654 593.92H193.03C194.566 593.92 195.974 594.304 197.254 595.072C198.534 595.797 199.537 596.8 200.262 598.08C201.03 599.317 201.414 600.704 201.414 602.24V604.992H194.438V602.432C194.438 602.005 194.289 601.643 193.99 601.344C193.691 601.003 193.329 600.832 192.902 600.832H163.846C163.419 600.832 163.035 601.003 162.694 601.344C162.395 601.643 162.246 602.005 162.246 602.432V631.488C162.246 631.915 162.395 632.299 162.694 632.64C163.035 632.939 163.419 633.088 163.846 633.088H192.902C193.329 633.088 193.691 632.939 193.99 632.64C194.289 632.299 194.438 631.915 194.438 631.488V621.696H183.558V614.72H201.414V631.68C201.414 633.216 201.03 634.624 200.262 635.904C199.537 637.141 198.534 638.144 197.254 638.912C195.974 639.637 194.566 640 193.03 640H163.654ZM208.523 640V593.856H215.435V633.088H254.603V640H208.523ZM285.025 640C283.531 640 282.145 639.637 280.865 638.912C279.627 638.144 278.625 637.141 277.857 635.904C277.089 634.624 276.705 633.216 276.705 631.68V618.624C276.705 617.685 277.153 616.747 278.049 615.808C278.945 614.827 280.182 614.229 281.76 614.016C280.097 612.608 279.265 610.901 279.265 608.896V602.304C279.265 600.768 279.627 599.381 280.353 598.144C281.121 596.864 282.123 595.861 283.361 595.136C284.641 594.368 286.049 593.984 287.585 593.984H312.481C313.803 593.984 315.041 594.304 316.193 594.944C317.345 595.584 318.326 596.437 319.137 597.504C319.99 598.528 320.566 599.659 320.865 600.896V605.184H313.889V602.56C313.889 602.133 313.739 601.771 313.441 601.472C313.142 601.173 312.758 601.024 312.289 601.024H287.713C287.286 601.024 286.923 601.173 286.625 601.472C286.326 601.771 286.177 602.133 286.177 602.56V610.752L315.809 625.728V617.856H322.721V628.352L330.849 633.152V639.744L322.017 634.752C321.249 636.331 320.182 637.611 318.817 638.592C317.451 639.531 316.001 640 314.465 640H285.025ZM285.217 633.088H311.649C312.075 633.088 312.523 632.96 312.993 632.704C313.462 632.405 313.867 632.043 314.209 631.616L286.177 617.536L285.217 617.344C284.79 617.344 284.406 617.557 284.065 617.984C283.766 618.411 283.617 619.093 283.617 620.032V631.488C283.617 631.915 283.766 632.299 284.065 632.64C284.406 632.939 284.79 633.088 285.217 633.088ZM363.586 640C362.092 640 360.706 639.637 359.426 638.912C358.146 638.144 357.122 637.141 356.354 635.904C355.628 634.624 355.266 633.216 355.266 631.68V628.992H362.178V631.488C362.178 631.915 362.327 632.299 362.626 632.64C362.967 632.939 363.351 633.088 363.778 633.088H392.834C393.26 633.088 393.623 632.939 393.922 632.64C394.22 632.299 394.37 631.915 394.37 631.488V622.016C394.37 621.547 394.22 621.163 393.922 620.864C393.623 620.565 393.26 620.416 392.834 620.416H363.586C362.092 620.416 360.706 620.053 359.426 619.328C358.146 618.56 357.122 617.557 356.354 616.32C355.628 615.04 355.266 613.632 355.266 612.096V602.24C355.266 600.704 355.628 599.317 356.354 598.08C357.122 596.8 358.146 595.797 359.426 595.072C360.706 594.304 362.092 593.92 363.586 593.92H393.026C394.519 593.92 395.906 594.304 397.186 595.072C398.466 595.797 399.468 596.8 400.194 598.08C400.962 599.317 401.346 600.704 401.346 602.24V604.928H394.37V602.432C394.37 602.005 394.22 601.643 393.922 601.344C393.623 601.003 393.26 600.832 392.834 600.832H363.778C363.351 600.832 362.967 601.003 362.626 601.344C362.327 601.643 362.178 602.005 362.178 602.432V611.904C362.178 612.373 362.327 612.757 362.626 613.056C362.967 613.355 363.351 613.504 363.778 613.504H393.026C394.519 613.504 395.906 613.888 397.186 614.656C398.466 615.381 399.468 616.384 400.194 617.664C400.962 618.901 401.346 620.288 401.346 621.824V631.68C401.346 633.216 400.962 634.624 400.194 635.904C399.468 637.141 398.466 638.144 397.186 638.912C395.906 639.637 394.519 640 393.026 640H363.586ZM416.592 640C415.056 640 413.648 639.637 412.368 638.912C411.13 638.144 410.128 637.141 409.36 635.904C408.634 634.624 408.272 633.216 408.272 631.68V602.24C408.272 600.704 408.634 599.317 409.36 598.08C410.128 596.8 411.13 595.797 412.368 595.072C413.648 594.304 415.056 593.92 416.592 593.92H445.968C447.504 593.92 448.912 594.304 450.192 595.072C451.472 595.797 452.474 596.8 453.2 598.08C453.968 599.317 454.352 600.704 454.352 602.24V604.992H447.376V602.432C447.376 602.005 447.226 601.643 446.928 601.344C446.629 601.003 446.266 600.832 445.84 600.832H416.784C416.357 600.832 415.973 601.003 415.632 601.344C415.333 601.643 415.184 602.005 415.184 602.432V631.488C415.184 631.915 415.333 632.299 415.632 632.64C415.973 632.939 416.357 633.088 416.784 633.088H445.84C446.266 633.088 446.629 632.939 446.928 632.64C447.226 632.299 447.376 631.915 447.376 631.488V621.696H436.496V614.72H454.352V631.68C454.352 633.216 453.968 634.624 453.2 635.904C452.474 637.141 451.472 638.144 450.192 638.912C448.912 639.637 447.504 640 445.968 640H416.592ZM489.493 640V602.368C489.493 601.941 489.322 601.579 488.981 601.28C488.682 600.981 488.319 600.832 487.893 600.832H458.005V593.856H488.085C489.621 593.856 491.007 594.24 492.245 595.008C493.525 595.733 494.527 596.736 495.253 598.016C496.021 599.253 496.405 600.64 496.405 602.176V640H489.493Z" fill="url(#paint1_linear_1_37)"/>
<defs>
<linearGradient id="paint0_linear_1_37" x1="300" y1="25" x2="300" y2="575" gradientUnits="userSpaceOnUse">
<stop offset="0.185" stop-color="#141824"/>
<stop offset="0.615" stop-color="#3C74F6"/>
<stop offset="1" stop-color="#0180C6"/>
</linearGradient>
<linearGradient id="paint1_linear_1_37" x1="99" y1="615" x2="501" y2="615" gradientUnits="userSpaceOnUse">
<stop offset="0.355" stop-color="#141824"/>
<stop offset="0.6" stop-color="#3C74F6"/>
<stop offset="0.71" stop-color="#0180C6"/>
</linearGradient>
</defs>
</svg>
