<svg width="21" height="26" viewBox="0 0 21 26" fill="none" xmlns="http://www.w3.org/2000/svg">
<g filter="url(#filter0_d_12_3)">
<path d="M10.5 21C10.5 21 18 13.8925 18 8.5C18 6.51088 17.2098 4.60322 15.8033 3.1967C14.3968 1.79018 12.4891 1 10.5 1C8.51088 1 6.60322 1.79018 5.1967 3.1967C3.79018 4.60322 3 6.51088 3 8.5C3 13.8925 10.5 21 10.5 21ZM10.5 12.25C9.50544 12.25 8.55161 11.8549 7.84835 11.1517C7.14509 10.4484 6.75 9.49456 6.75 8.5C6.75 7.50544 7.14509 6.55161 7.84835 5.84835C8.55161 5.14509 9.50544 4.75 10.5 4.75C11.4946 4.75 12.4484 5.14509 13.1517 5.84835C13.8549 6.55161 14.25 7.50544 14.25 8.5C14.25 9.49456 13.8549 10.4484 13.1517 11.1517C12.4484 11.8549 11.4946 12.25 10.5 12.25Z" fill="#4E8AD9"/>
</g>
<defs>
<filter id="filter0_d_12_3" x="0" y="0" width="21" height="26" filterUnits="userSpaceOnUse" color-interpolation-filters="sRGB">
<feFlood flood-opacity="0" result="BackgroundImageFix"/>
<feColorMatrix in="SourceAlpha" type="matrix" values="0 0 0 0 0 0 0 0 0 0 0 0 0 0 0 0 0 0 127 0" result="hardAlpha"/>
<feOffset dy="2"/>
<feGaussianBlur stdDeviation="1.5"/>
<feComposite in2="hardAlpha" operator="out"/>
<feColorMatrix type="matrix" values="0 0 0 0 0 0 0 0 0 0 0 0 0 0 0 0 0 0 0.51 0"/>
<feBlend mode="normal" in2="BackgroundImageFix" result="effect1_dropShadow_12_3"/>
<feBlend mode="normal" in="SourceGraphic" in2="effect1_dropShadow_12_3" result="shape"/>
</filter>
</defs>
</svg>
