<svg width="21" height="26" viewBox="0 0 21 26" fill="none" xmlns="http://www.w3.org/2000/svg">
<g filter="url(#filter0_d_12_3)">
<path d="M10.5 21C10.5 21 18 13.8925 18 8.5C18 6.51088 17.2098 4.60322 15.8033 3.1967C14.3968 1.79018 12.4891 1 10.5 1C8.51088 1 6.60322 1.79018 5.1967 3.1967C3.79018 4.60322 3 6.51088 3 8.5C3 13.8925 10.5 21 10.5 21ZM10.5 12.25C9.50544 12.25 8.55161 11.8549 7.84835 11.1517C7.14509 10.4484 6.75 9.49456 6.75 8.5C6.75 7.50544 7.14509 6.55161 7.84835 5.84835C8.55161 5.14509 9.50544 4.75 10.5 4.75C11.4946 4.75 12.4484 5.14509 13.1517 5.84835C13.8549 6.55161 14.25 7.50544 14.25 8.5C14.25 9.49456 13.8549 10.4484 13.1517 11.1517C12.4484 11.8549 11.4946 12.25 10.5 12.25Z" fill="#2377E6"/>
<path d="M10.5 20.8613C10.4954 20.8568 10.4905 20.8521 10.4855 20.8471C10.4308 20.7941 10.3506 20.7154 10.2484 20.6133C10.044 20.4091 9.75183 20.1112 9.40111 19.7368C8.69956 18.9879 7.76437 17.9336 6.82942 16.7114C5.89425 15.489 4.96082 14.1007 4.26155 12.6838C3.56173 11.2659 3.1 9.82647 3.1 8.5C3.1 6.5374 3.87964 4.65518 5.26741 3.26741C6.65518 1.87964 8.5374 1.1 10.5 1.1C12.4626 1.1 14.3448 1.87964 15.7326 3.26741C17.1204 4.65518 17.9 6.5374 17.9 8.5C17.9 9.82647 17.4383 11.2659 16.7385 12.6838C16.0392 14.1007 15.1057 15.489 14.1706 16.7114C13.2356 17.9336 12.3004 18.9879 11.5989 19.7368C11.2482 20.1112 10.956 20.4091 10.7516 20.6133C10.6494 20.7154 10.5692 20.7941 10.5145 20.8471C10.5095 20.8521 10.5046 20.8568 10.5 20.8613ZM7.77764 11.2224C8.49965 11.9444 9.47892 12.35 10.5 12.35C11.5211 12.35 12.5003 11.9444 13.2224 11.2224C13.9444 10.5003 14.35 9.52108 14.35 8.5C14.35 7.47892 13.9444 6.49965 13.2224 5.77764C12.5003 5.05562 11.5211 4.65 10.5 4.65C9.47892 4.65 8.49965 5.05562 7.77764 5.77764C7.05562 6.49965 6.65 7.47892 6.65 8.5C6.65 9.52108 7.05562 10.5003 7.77764 11.2224Z" stroke="#0032B1" stroke-width="0.2"/>
</g>
<defs>
<filter id="filter0_d_12_3" x="0" y="0" width="21" height="26" filterUnits="userSpaceOnUse" color-interpolation-filters="sRGB">
<feFlood flood-opacity="0" result="BackgroundImageFix"/>
<feColorMatrix in="SourceAlpha" type="matrix" values="0 0 0 0 0 0 0 0 0 0 0 0 0 0 0 0 0 0 127 0" result="hardAlpha"/>
<feOffset dy="2"/>
<feGaussianBlur stdDeviation="1.5"/>
<feComposite in2="hardAlpha" operator="out"/>
<feColorMatrix type="matrix" values="0 0 0 0 0 0 0 0 0 0 0 0 0 0 0 0 0 0 0.02 0"/>
<feBlend mode="normal" in2="BackgroundImageFix" result="effect1_dropShadow_12_3"/>
<feBlend mode="normal" in="SourceGraphic" in2="effect1_dropShadow_12_3" result="shape"/>
</filter>
</defs>
</svg>
